<svg id="shad" xmlns="http://www.w3.org/2000/svg" viewBox="0 0 308.17 308.17"><defs><style>.cls-1,.cls-2{fill:#020202;}.cls-1{opacity:0.25;}.cls-3{fill:#f2da0d;}.cls-4{fill:#fff;}</style></defs><title>outliers-patch</title><path class="cls-1" d="M164.34,8.83C79.37,8.83,10.25,78,10.25,162.91S79.37,317,164.34,317s154.09-69.12,154.09-154.09S249.3,8.83,164.34,8.83Z" transform="translate(-10.25 -8.83)"/><circle cx="154.09" cy="154.09" r="139.01"/><path class="cls-2" d="M164.34,311.58c-82,0-148.66-66.69-148.66-148.66S82.36,14.25,164.34,14.25,313,80.94,313,162.91,246.31,311.58,164.34,311.58Zm0-278A129.36,129.36,0,1,0,293.7,162.91,129.51,129.51,0,0,0,164.34,33.55Z" transform="translate(-10.25 -8.83)"/><path class="cls-3" d="M164.34,306.75C85,306.75,20.5,242.23,20.5,162.91S85,19.07,164.34,19.07,308.18,83.6,308.18,162.91,243.65,306.75,164.34,306.75Zm0-278c-74,0-134.19,60.2-134.19,134.19S90.34,297.1,164.34,297.1s134.19-60.2,134.19-134.19S238.33,28.72,164.34,28.72Z" transform="translate(-10.25 -8.83)"/><path class="cls-3" d="M164.34,248.86a85.94,85.94,0,1,1,85.94-85.94A86,86,0,0,1,164.34,248.86Zm0-169.47a83.53,83.53,0,1,0,83.53,83.53A83.62,83.62,0,0,0,164.34,79.38Z" transform="translate(-10.25 -8.83)"/><polygon class="cls-3" points="148.96 63.02 224.35 192.28 191.58 181.02 148.96 63.02"/><polygon class="cls-3" points="77.52 209.76 152.25 80.11 158.76 114.15 77.52 209.76"/><polygon class="cls-3" points="239.96 197.13 90.33 199.29 116.23 176.28 239.96 197.13"/><path class="cls-4" d="M61.4,127.12q-6.75-3.52-8.55-9.24t1.7-12.43q3.59-6.88,9.22-8.68t12.29,1.67a19.14,19.14,0,0,1,7.08,5.76,13.07,13.07,0,0,1,2.37,7.21A17.5,17.5,0,0,1,83.23,120a19.88,19.88,0,0,1-5.51,6.95,13.1,13.1,0,0,1-7.28,2.51A17.61,17.61,0,0,1,61.4,127.12Zm4.47-8.5q4.18,2.18,6.81,1.57a6.62,6.62,0,0,0,4.45-8.45q-1-2.43-5.63-4.84-3.89-2-6.51-1.39a6.05,6.05,0,0,0-4,3.32,5.83,5.83,0,0,0-.33,5.09Q61.67,116.43,65.88,118.62Z" transform="translate(-10.25 -8.83)"/><path class="cls-4" d="M86.58,66.91l7.18-6.34L106,74.45a15.62,15.62,0,0,1,2.8,4.47,11.25,11.25,0,0,1,.82,5,10.73,10.73,0,0,1-1.18,4.48,19.35,19.35,0,0,1-4.35,5.23,42.12,42.12,0,0,1-3.92,3,13,13,0,0,1-4.2,2,11.23,11.23,0,0,1-4.25.17,9.84,9.84,0,0,1-3.9-1.33,18.55,18.55,0,0,1-4.15-3.35L71.43,80.29l7.18-6.35L91.17,88.16a5.42,5.42,0,0,0,3.69,2,6.07,6.07,0,0,0,5.86-5.15,5.4,5.4,0,0,0-1.59-3.93Z" transform="translate(-10.25 -8.83)"/><path class="cls-4" d="M104.48,54L131.6,43.16l2.85,7.13-9.1,3.64L134,75.66l-8.92,3.56-8.69-21.74-9.1,3.64Z" transform="translate(-10.25 -8.83)"/><path class="cls-4" d="M143.28,41l9.58-.69,1.68,23.37,15-1.08L170,70.22,145.51,72Z" transform="translate(-10.25 -8.83)"/><path class="cls-4" d="M178.12,40.64l9.5,1.53-4.94,30.69-9.5-1.53Z" transform="translate(-10.25 -8.83)"/><path class="cls-4" d="M200.17,44.81L223.82,55l-2.62,6.1-14.8-6.37-2,4.54,13.73,5.91L215.67,71l-13.73-5.91-2.42,5.63,15.23,6.55L212,83.72,187.89,73.37Z" transform="translate(-10.25 -8.83)"/><path class="cls-4" d="M214.56,85.43l20.89-23L247.3,73.17a23.27,23.27,0,0,1,4.53,5.14,7.25,7.25,0,0,1,.91,4.65,8.78,8.78,0,0,1-10.42,7.48A11.58,11.58,0,0,1,239,89.07a9.59,9.59,0,0,1,1.08,2.53,9.69,9.69,0,0,1,0,2.24,12.27,12.27,0,0,1-.3,2.33L237.2,106l-8-7.29,2.58-10.48a7.24,7.24,0,0,0,.32-2.94,4,4,0,0,0-1.26-2.12l-0.63-.57-8.48,9.34Zm19.57-7.21,3,2.72a14.47,14.47,0,0,0,2.17,1.4,2.54,2.54,0,0,0,1.81.33,3.15,3.15,0,0,0,2.51-3.28,5.77,5.77,0,0,0-2.11-3l-3.13-2.84Z" transform="translate(-10.25 -8.83)"/><path class="cls-4" d="M245.41,100.74l4.91,7.73a7,7,0,0,0-2.39,2.7,5.07,5.07,0,0,0,.39,4.62,4.69,4.69,0,0,0,2.37,2.31,2.9,2.9,0,0,0,2.5-.1,2.85,2.85,0,0,0,1.38-2q0.32-1.39-.8-5.18-1.81-6.22-1-9.71a7.59,7.59,0,0,1,3.95-5.27,8.15,8.15,0,0,1,4.64-1,9.22,9.22,0,0,1,4.95,2A19.49,19.49,0,0,1,271,103q2.88,5.22,2.45,9t-4.38,6.66L264.26,111A4.23,4.23,0,0,0,265.5,105a3.86,3.86,0,0,0-1.84-1.87,2.18,2.18,0,0,0-1.92.09,1.74,1.74,0,0,0-.83,1.26,7.91,7.91,0,0,0,.55,3.38,40.31,40.31,0,0,1,2,9.23,9.51,9.51,0,0,1-1.1,5.13,8.73,8.73,0,0,1-3.43,3.31,9.84,9.84,0,0,1-5.63,1.21,10.34,10.34,0,0,1-5.58-2.2,18.68,18.68,0,0,1-4.76-5.93q-3.83-6.95-2.63-11.09A12,12,0,0,1,245.41,100.74Z" transform="translate(-10.25 -8.83)"/><path class="cls-4" d="M75.64,200.06l4,8.76-15.38,7a26.51,26.51,0,0,1-7.76,2.49,9.29,9.29,0,0,1-5.85-1.51,12.78,12.78,0,0,1-4.77-5.85A16.88,16.88,0,0,1,44,203.76a9.16,9.16,0,0,1,1.74-5.18,14,14,0,0,1,4.82-4l4.93,7.84A10.5,10.5,0,0,0,52.86,204a3.32,3.32,0,0,0-1,1.71,2.62,2.62,0,0,0,.28,1.59A2.59,2.59,0,0,0,54.22,209a8,8,0,0,0,4-1Z" transform="translate(-10.25 -8.83)"/><path class="cls-4" d="M84.4,215.14l6,7.54L66,242l-6-7.54Z" transform="translate(-10.25 -8.83)"/><path class="cls-4" d="M111.35,240.82l7.77,5.61-10.83,15a15.59,15.59,0,0,1-3.74,3.72,11.24,11.24,0,0,1-4.69,1.9,10.73,10.73,0,0,1-4.63-.16,19.36,19.36,0,0,1-6.06-3.09,42.33,42.33,0,0,1-3.83-3.15,13,13,0,0,1-2.9-3.65,11.23,11.23,0,0,1-1.11-4.1,9.82,9.82,0,0,1,.44-4.1A18.58,18.58,0,0,1,84.13,244L95,229l7.77,5.61L91.65,250a5.41,5.41,0,0,0-1.18,4,6.07,6.07,0,0,0,6.32,4.58,5.39,5.39,0,0,0,3.48-2.41Z" transform="translate(-10.25 -8.83)"/><path class="cls-4" d="M118.35,263.16l11.76,4.4-2.34,6.26L116,269.42Z" transform="translate(-10.25 -8.83)"/><path class="cls-4" d="M153.77,255.62l9.55,1.18-2.07,16.76a26.47,26.47,0,0,1-1.93,7.92,9.29,9.29,0,0,1-4.34,4.2,12.78,12.78,0,0,1-7.49,1,16.89,16.89,0,0,1-7.08-2.16,9.17,9.17,0,0,1-3.51-4.18,14,14,0,0,1-.91-6.21l9.26-.12a10.47,10.47,0,0,0,0,3.07,3.32,3.32,0,0,0,.94,1.74,2.63,2.63,0,0,0,1.51.59,2.59,2.59,0,0,0,2.49-.9,8,8,0,0,0,1.24-3.91Z" transform="translate(-10.25 -8.83)"/><path class="cls-4" d="M171.25,256.05l9.56-1.14,3.68,30.87-9.56,1.14Z" transform="translate(-10.25 -8.83)"/><path class="cls-4" d="M186.64,254.76l27.16-10.71,2.82,7.14-9.11,3.59,8.59,21.78-8.94,3.52-8.59-21.78-9.11,3.59Z" transform="translate(-10.25 -8.83)"/><path class="cls-4" d="M229.7,258.41l6.64-6.3a7,7,0,0,0,3.1,1.83,5.08,5.08,0,0,0,4.46-1.27,4.69,4.69,0,0,0,1.81-2.77,2.89,2.89,0,0,0-.58-2.43,2.85,2.85,0,0,0-2.2-1q-1.43-.05-4.93,1.77-5.76,3-9.33,2.89a7.59,7.59,0,0,1-5.93-2.86,8.15,8.15,0,0,1-1.84-4.36,9.21,9.21,0,0,1,1.05-5.25,19.49,19.49,0,0,1,5.08-5.84q4.57-3.82,8.39-4.13t7.38,3l-6.6,6.22a4.23,4.23,0,0,0-6.18-.05,3.86,3.86,0,0,0-1.48,2.16,2.18,2.18,0,0,0,.46,1.87,1.73,1.73,0,0,0,1.39.57,7.86,7.86,0,0,0,3.21-1.19,40.33,40.33,0,0,1,8.68-3.68,9.5,9.5,0,0,1,5.25.1,8.74,8.74,0,0,1,3.9,2.73,9.87,9.87,0,0,1,2.27,5.29,10.35,10.35,0,0,1-1.09,5.9,18.67,18.67,0,0,1-4.9,5.8q-6.08,5.09-10.38,4.7A12,12,0,0,1,229.7,258.41Z" transform="translate(-10.25 -8.83)"/><path class="cls-4" d="M251.59,203.26l4.87-8.25,15.95,9.41a15.63,15.63,0,0,1,4,3.38,11.24,11.24,0,0,1,2.32,4.49,10.74,10.74,0,0,1,.26,4.62,19.4,19.4,0,0,1-2.52,6.32,42.23,42.23,0,0,1-2.79,4.1,13,13,0,0,1-3.37,3.22,11.2,11.2,0,0,1-4,1.48,9.83,9.83,0,0,1-4.12-.06,18.55,18.55,0,0,1-5-1.9l-15.95-9.41,4.87-8.25L262.52,222a5.41,5.41,0,0,0,4.14.81,6.07,6.07,0,0,0,4-6.71,5.4,5.4,0,0,0-2.72-3.24Z" transform="translate(-10.25 -8.83)"/><path class="cls-3" d="M276.64,144.11A14.8,14.8,0,0,0,273.59,159a11.19,11.19,0,0,1,7.68-7.2S276.82,148.3,276.64,144.11Z" transform="translate(-10.25 -8.83)"/><path class="cls-3" d="M273.56,159.23a0.23,0.23,0,0,1-.19-0.16,15.16,15.16,0,0,1,3.11-15.14,0.24,0.24,0,0,1,.4.16c0.17,4,4.49,7.48,4.53,7.52a0.24,0.24,0,0,1-.09.41,11,11,0,0,0-7.51,7,0.24,0.24,0,0,1-.22.17h0Zm2.89-14.57a14.66,14.66,0,0,0-2.85,13.62,11.44,11.44,0,0,1,7.16-6.6C279.75,150.8,276.88,148,276.45,144.67Z" transform="translate(-10.25 -8.83)"/><path class="cls-3" d="M260.81,150.18a14.8,14.8,0,0,0,11.54,9.9,11.19,11.19,0,0,1-2.57-10.2S264.57,152.06,260.81,150.18Z" transform="translate(-10.25 -8.83)"/><path class="cls-3" d="M272.33,160.31h0a15.16,15.16,0,0,1-11.73-10.06,0.24,0.24,0,0,1,.33-0.27c3.62,1.81,8.72-.29,8.77-0.32a0.24,0.24,0,0,1,.32.28,11,11,0,0,0,2.51,10A0.24,0.24,0,0,1,272.33,160.31Zm-11.11-9.69a14.66,14.66,0,0,0,10.53,9.1,11.44,11.44,0,0,1-2.3-9.46C268.17,150.72,264.35,151.88,261.21,150.62Z" transform="translate(-10.25 -8.83)"/><path class="cls-3" d="M257.77,166.77a14.8,14.8,0,0,0,14.33-5.09A11.19,11.19,0,0,1,262,158.84S261.27,164.44,257.77,166.77Z" transform="translate(-10.25 -8.83)"/><path class="cls-3" d="M258.76,167.17a9.64,9.64,0,0,1-1-.17,0.24,0.24,0,0,1-.07-0.42c3.37-2.24,4.08-7.71,4.09-7.77a0.24,0.24,0,0,1,.4-0.14,11,11,0,0,0,9.91,2.78,0.24,0.24,0,0,1,.24.38A15.07,15.07,0,0,1,258.76,167.17Zm-0.41-.53A14.66,14.66,0,0,0,271.48,162a11.44,11.44,0,0,1-9.35-2.72C261.89,160.65,261,164.54,258.35,166.64Z" transform="translate(-10.25 -8.83)"/><path class="cls-3" d="M271.16,177.17a14.8,14.8,0,0,0,2.5-15,11.19,11.19,0,0,1-7.4,7.48S270.82,173,271.16,177.17Z" transform="translate(-10.25 -8.83)"/><path class="cls-3" d="M271.13,177.41h-0.05a0.24,0.24,0,0,1-.16-0.2c-0.32-4-4.76-7.31-4.81-7.34a0.24,0.24,0,0,1,.07-0.42,11,11,0,0,0,7.24-7.31,0.24,0.24,0,0,1,.45,0,15.15,15.15,0,0,1-2.55,15.24A0.23,0.23,0,0,1,271.13,177.41Zm-4.37-7.66c1.05,0.85,4,3.52,4.57,6.86a14.66,14.66,0,0,0,2.34-13.72A11.44,11.44,0,0,1,266.76,169.75Z" transform="translate(-10.25 -8.83)"/><path class="cls-3" d="M286.5,171.81a14.8,14.8,0,0,0-11.22-10.25,11.19,11.19,0,0,1,2.25,10.28S282.81,169.82,286.5,171.81Z" transform="translate(-10.25 -8.83)"/><path class="cls-3" d="M277.5,172.07a0.24,0.24,0,0,1-.2-0.3,11,11,0,0,0-2.2-10.05,0.24,0.24,0,0,1,0-.28,0.23,0.23,0,0,1,.25-0.11,15.15,15.15,0,0,1,11.41,10.43,0.24,0.24,0,0,1-.34.26c-3.56-1.92-8.73,0-8.78,0H277.5Zm-1.62-10.13a11.44,11.44,0,0,1,2,9.53c1.29-.42,5.14-1.46,8.24-0.11A14.66,14.66,0,0,0,275.88,161.94Z" transform="translate(-10.25 -8.83)"/><path class="cls-3" d="M289.39,155.11A14.8,14.8,0,0,0,275,160a11.19,11.19,0,0,1,10.08,3S285.85,157.37,289.39,155.11Z" transform="translate(-10.25 -8.83)"/><path class="cls-3" d="M285,163.2a0.23,0.23,0,0,1-.14-0.07,11,11,0,0,0-9.86-3,0.24,0.24,0,0,1-.23-0.38,15.15,15.15,0,0,1,14.65-4.92,0.24,0.24,0,0,1,.07.43c-3.41,2.18-4.22,7.64-4.22,7.69a0.24,0.24,0,0,1-.16.19H285Zm-6.38-3.6a10.78,10.78,0,0,1,6.25,2.88c0.26-1.33,1.22-5.2,3.9-7.26a14.65,14.65,0,0,0-13.21,4.38A12.57,12.57,0,0,1,278.65,159.6Z" transform="translate(-10.25 -8.83)"/><path class="cls-3" d="M58.15,144.11A14.8,14.8,0,0,0,55.09,159a11.19,11.19,0,0,1,7.68-7.2S58.33,148.3,58.15,144.11Z" transform="translate(-10.25 -8.83)"/><path class="cls-3" d="M55.07,159.23a0.23,0.23,0,0,1-.19-0.16A15.16,15.16,0,0,1,58,143.94a0.24,0.24,0,0,1,.4.16c0.17,4,4.49,7.48,4.53,7.52a0.24,0.24,0,0,1-.09.41,11,11,0,0,0-7.51,7,0.24,0.24,0,0,1-.22.17h0ZM58,144.67a14.66,14.66,0,0,0-2.85,13.62,11.44,11.44,0,0,1,7.16-6.6C61.25,150.8,58.38,148,58,144.67Z" transform="translate(-10.25 -8.83)"/><path class="cls-3" d="M42.32,150.18a14.8,14.8,0,0,0,11.54,9.9,11.19,11.19,0,0,1-2.57-10.2S46.08,152.06,42.32,150.18Z" transform="translate(-10.25 -8.83)"/><path class="cls-3" d="M53.84,160.31h0A15.16,15.16,0,0,1,42.1,150.25a0.24,0.24,0,0,1,.33-0.27c3.62,1.81,8.72-.29,8.77-0.32a0.24,0.24,0,0,1,.32.28,11,11,0,0,0,2.51,10A0.24,0.24,0,0,1,53.84,160.31Zm-11.11-9.69a14.66,14.66,0,0,0,10.53,9.1,11.44,11.44,0,0,1-2.3-9.46C49.68,150.72,45.86,151.88,42.72,150.62Z" transform="translate(-10.25 -8.83)"/><path class="cls-3" d="M39.28,166.77a14.8,14.8,0,0,0,14.33-5.09,11.19,11.19,0,0,1-10.13-2.84S42.78,164.44,39.28,166.77Z" transform="translate(-10.25 -8.83)"/><path class="cls-3" d="M40.27,167.17a9.64,9.64,0,0,1-1-.17,0.24,0.24,0,0,1-.07-0.42c3.37-2.24,4.08-7.71,4.09-7.77a0.24,0.24,0,0,1,.4-0.14,11,11,0,0,0,9.91,2.78,0.24,0.24,0,0,1,.24.38A15.07,15.07,0,0,1,40.27,167.17Zm-0.41-.53A14.66,14.66,0,0,0,53,162a11.44,11.44,0,0,1-9.35-2.72C43.4,160.65,42.51,164.54,39.86,166.64Z" transform="translate(-10.25 -8.83)"/><path class="cls-3" d="M52.67,177.17a14.8,14.8,0,0,0,2.5-15,11.19,11.19,0,0,1-7.4,7.48S52.33,173,52.67,177.17Z" transform="translate(-10.25 -8.83)"/><path class="cls-3" d="M52.64,177.41H52.59a0.24,0.24,0,0,1-.16-0.2c-0.32-4-4.76-7.31-4.81-7.34a0.24,0.24,0,0,1,.07-0.42,11,11,0,0,0,7.24-7.31,0.24,0.24,0,0,1,.45,0,15.15,15.15,0,0,1-2.55,15.24A0.23,0.23,0,0,1,52.64,177.41Zm-4.37-7.66c1.05,0.85,4,3.52,4.57,6.86a14.66,14.66,0,0,0,2.34-13.72A11.44,11.44,0,0,1,48.26,169.75Z" transform="translate(-10.25 -8.83)"/><path class="cls-3" d="M68,171.81a14.8,14.8,0,0,0-11.22-10.25A11.19,11.19,0,0,1,59,171.84S64.31,169.82,68,171.81Z" transform="translate(-10.25 -8.83)"/><path class="cls-3" d="M59,172.07a0.24,0.24,0,0,1-.2-0.3,11,11,0,0,0-2.2-10.05,0.24,0.24,0,0,1,0-.28,0.23,0.23,0,0,1,.25-0.11,15.15,15.15,0,0,1,11.41,10.43,0.24,0.24,0,0,1-.34.26c-3.56-1.92-8.73,0-8.78,0H59Zm-1.62-10.13a11.44,11.44,0,0,1,2,9.53c1.29-.42,5.14-1.46,8.24-0.11A14.66,14.66,0,0,0,57.39,161.94Z" transform="translate(-10.25 -8.83)"/><path class="cls-3" d="M70.9,155.11A14.8,14.8,0,0,0,56.49,160a11.19,11.19,0,0,1,10.08,3S67.36,157.37,70.9,155.11Z" transform="translate(-10.25 -8.83)"/><path class="cls-3" d="M66.54,163.2a0.23,0.23,0,0,1-.14-0.07,11,11,0,0,0-9.86-3,0.24,0.24,0,0,1-.23-0.38A15.15,15.15,0,0,1,71,154.88a0.24,0.24,0,0,1,.07.43c-3.41,2.18-4.22,7.64-4.22,7.69a0.24,0.24,0,0,1-.16.19h-0.1Zm-6.38-3.6a10.78,10.78,0,0,1,6.25,2.88c0.26-1.33,1.22-5.2,3.9-7.26a14.65,14.65,0,0,0-13.21,4.38A12.57,12.57,0,0,1,60.16,159.6Z" transform="translate(-10.25 -8.83)"/></svg>