<svg id="shad_copy" data-name="shad copy" xmlns="http://www.w3.org/2000/svg" viewBox="0 0 308.17 308.17"><defs><style>.cls-1,.cls-2{fill:#020202;}.cls-1{opacity:0.25;}.cls-3{fill:#f2da0d;}.cls-4,.cls-5{fill:#fff;}.cls-5{font-size:19.03px;font-family:Arial;}</style></defs><title>ribeiro-patch</title><path class="cls-1" d="M265.22,338.16c-85,0-154.09,69.12-154.09,154.09s69.12,154.09,154.09,154.09,154.09-69.12,154.09-154.09S350.19,338.16,265.22,338.16Z" transform="translate(-111.14 -338.16)"/><circle cx="154.09" cy="154.16" r="139.68"/><path class="cls-2" d="M265.22,641.7c-82.37,0-149.37-67-149.37-149.37S182.86,343,265.22,343,414.6,410,414.6,492.33,347.59,641.7,265.22,641.7Zm0-279.36a130,130,0,1,0,130,130A130.13,130.13,0,0,0,265.22,362.34Z" transform="translate(-111.14 -338.16)"/><path class="cls-3" d="M265.22,636.85c-79.69,0-144.53-64.83-144.53-144.53S185.53,347.8,265.22,347.8s144.53,64.83,144.53,144.53S344.92,636.85,265.22,636.85Zm0-279.36c-74.35,0-134.83,60.48-134.83,134.83s60.48,134.83,134.83,134.83,134.83-60.48,134.83-134.83S339.57,357.5,265.22,357.5Z" transform="translate(-111.14 -338.16)"/><path class="cls-3" d="M265.22,578.68a86.35,86.35,0,1,1,86.35-86.35A86.45,86.45,0,0,1,265.22,578.68Zm0-170.28a83.93,83.93,0,1,0,83.93,83.93A84,84,0,0,0,265.22,408.4Z" transform="translate(-111.14 -338.16)"/><path class="cls-3" d="M265.22,578.68a86.35,86.35,0,1,1,86.35-86.35A86.45,86.45,0,0,1,265.22,578.68Zm0-170.28a83.93,83.93,0,1,0,83.93,83.93A84,84,0,0,0,265.22,408.4Z" transform="translate(-111.14 -338.16)"/><path class="cls-3" d="M269.86,413.43S245.1,444.58,264,483.49c0,0,4.63-27.21,31.29-37.27C295.3,446.22,273,432.61,269.86,413.43Z" transform="translate(-111.14 -338.16)"/><path class="cls-3" d="M264,484.58a1.09,1.09,0,0,1-1-.61c-19-39.07,5.72-70.89,6-71.21a1.09,1.09,0,0,1,1.93.5c3,18.45,24.71,31.9,24.93,32a1.09,1.09,0,0,1-.18,1.95c-25.74,9.72-30.55,36.17-30.6,36.44a1.09,1.09,0,0,1-.92.89H264Zm5.29-68.46c-4.75,7.21-19.14,33-5.61,64.09,2.1-7.32,9.21-25.69,29.26-34.22C287.79,442.46,273.1,431.29,269.31,416.12Z" transform="translate(-111.14 -338.16)"/><path class="cls-3" d="M200.54,450s15.23,36.76,58.43,39.1c0,0-21.55-17.24-17.42-45.44C241.54,443.69,218.83,456.6,200.54,450Z" transform="translate(-111.14 -338.16)"/><path class="cls-3" d="M259,490.21H258.9c-43.37-2.35-59.22-39.39-59.37-39.77A1.09,1.09,0,0,1,200.9,449c17.63,6.33,39.88-6.14,40.1-6.26a1.09,1.09,0,0,1,1.62,1.1c-4,27.23,16.81,44.26,17,44.43A1.09,1.09,0,0,1,259,490.21Zm-56.35-38.4c4,7.65,19.61,32.76,53.33,36-5.38-5.39-18-20.52-15.74-42.19C234.61,448.43,217.72,455.86,202.61,451.82Z" transform="translate(-111.14 -338.16)"/><path class="cls-3" d="M195.67,527.85s39.47,5.08,63-31.23c0,0-25.68,10.11-48.08-7.5C210.57,489.12,210.47,515.25,195.67,527.85Z" transform="translate(-111.14 -338.16)"/><path class="cls-3" d="M200.42,529.15a44.58,44.58,0,0,1-4.89-.22A1.09,1.09,0,0,1,195,527c14.24-12.12,14.52-37.65,14.52-37.9a1.09,1.09,0,0,1,1.76-.85c21.63,17,46.76,7.44,47,7.34a1.09,1.09,0,0,1,1.31,1.6C240.86,526.09,211.87,529.15,200.42,529.15Zm-2.17-2.21c8.63,0.33,38.17-.71,57.75-28.35-7.35,2-26.75,5.41-44.42-7.34C211.24,497.5,209.28,515.85,198.25,526.94Z" transform="translate(-111.14 -338.16)"/><path class="cls-3" d="M262.84,568.26s23.58-32,3.24-70.22c0,0-3.61,27.36-29.88,38.41C236.21,536.44,259,549.21,262.84,568.26Z" transform="translate(-111.14 -338.16)"/><path class="cls-3" d="M262.84,569.35l-0.24,0a1.09,1.09,0,0,1-.83-0.85c-3.7-18.35-25.88-31-26.1-31.08a1.09,1.09,0,0,1,.11-2C261.15,524.77,265,498.16,265,497.89a1.09,1.09,0,0,1,2-.37c20.43,38.34-3.09,71.06-3.33,71.38A1.08,1.08,0,0,1,262.84,569.35Zm-24.29-32.76c5.29,3.33,20.39,13.94,24.74,29,4.48-7.38,17.9-33.73,3.22-64.26C264.7,508.69,258.27,527.32,238.56,536.59Z" transform="translate(-111.14 -338.16)"/><path class="cls-3" d="M330.35,535.24S316.29,498,273.19,494.32c0,0,21,17.91,16,46C289.17,540.29,312.28,528.1,330.35,535.24Z" transform="translate(-111.14 -338.16)"/><path class="cls-3" d="M289.17,541.38a1.09,1.09,0,0,1-1.07-1.28c4.85-27.09-15.41-44.77-15.61-44.95a1.09,1.09,0,0,1-.3-1.25,1,1,0,0,1,1.1-.66c43.28,3.71,57.94,41.24,58.09,41.62a1.09,1.09,0,0,1-1.42,1.4c-17.4-6.87-40.05,4.88-40.28,5A1.09,1.09,0,0,1,289.17,541.38Zm-13-45.64c5.21,5.55,17.34,21.08,14.4,42.66,5.67-2.63,22.78-9.53,37.77-5C324.57,525.61,309.77,500,276.17,495.73Z" transform="translate(-111.14 -338.16)"/><path class="cls-3" d="M334.45,457s-39.37-5.76-63.51,30.14c0,0,25.85-9.67,47.95,8.33C318.89,495.42,319.44,469.3,334.45,457Z" transform="translate(-111.14 -338.16)"/><path class="cls-3" d="M318.88,496.51a1.08,1.08,0,0,1-.69-0.24c-21.33-17.37-46.62-8.24-46.88-8.15a1.09,1.09,0,0,1-1.28-1.63c24.24-36,64.17-30.67,64.57-30.61a1.09,1.09,0,0,1,.53,1.92C320.69,469.68,320,495.19,320,495.45A1.09,1.09,0,0,1,318.88,496.51Zm-31.27-13a49.86,49.86,0,0,1,30.3,9.81c0.45-6.24,2.73-24.55,13.94-35.46-8.63-.49-38.18,0-58.23,27.35A58.12,58.12,0,0,1,287.61,483.47Z" transform="translate(-111.14 -338.16)"/><path class="cls-4" d="M188.65,436.6l-23-21.9,11.28-11.86a23.81,23.81,0,0,1,5.36-4.51,7.41,7.41,0,0,1,4.77-.82,9,9,0,0,1,7.4,10.83,11.85,11.85,0,0,1-1.47,3.37,6.64,6.64,0,0,1,4.9-1,12.48,12.48,0,0,1,2.38.36l10,2.9-7.65,8-10.66-2.89a7.42,7.42,0,0,0-3-.4,4.13,4.13,0,0,0-2.19,1.24l-0.6.63,9.35,8.89Zm-6.91-20.18,2.85-3a15,15,0,0,0,1.48-2.18,2.59,2.59,0,0,0,.37-1.84,3.22,3.22,0,0,0-3.29-2.64q-1.27.14-3.12,2.09l-3,3.13Z" transform="translate(-111.14 -338.16)"/><path class="cls-4" d="M194.65,387.85l8.32-5.26,17,26.86-8.32,5.26Z" transform="translate(-111.14 -338.16)"/><path class="cls-4" d="M213.35,376.45l17.48-5.71q4.37-1.43,7.42,0a7.38,7.38,0,0,1,4.09,4.6,7.12,7.12,0,0,1-.17,5.14,7.82,7.82,0,0,1-2.6,3.08,8.9,8.9,0,0,1,5.67,1.13,7.79,7.79,0,0,1,3.1,4.29,8.66,8.66,0,0,1,.29,4.58,8.46,8.46,0,0,1-2,3.94,10.38,10.38,0,0,1-3.22,2.15,42.92,42.92,0,0,1-4,1.78l-16.12,5.26Zm13.29,8.78,4.06-1.33a4.9,4.9,0,0,0,2.79-1.74,2.88,2.88,0,0,0,.14-2.45,2.71,2.71,0,0,0-1.53-1.78,4.82,4.82,0,0,0-3.22.23l-4.12,1.35Zm3.88,11.87,4.76-1.55a5.51,5.51,0,0,0,3.12-2,3,3,0,0,0,.24-2.62,2.8,2.8,0,0,0-1.68-1.83,5.75,5.75,0,0,0-3.7.31L228.51,391Z" transform="translate(-111.14 -338.16)"/><path class="cls-4" d="M253.31,365.79l26.32,0.43L279.52,373,263,372.73,263,377.78,278.24,378l-0.11,6.48-15.28-.25-0.1,6.26,17,0.28-0.12,7.2-26.8-.43Z" transform="translate(-111.14 -338.16)"/><path class="cls-4" d="M289.94,368.35l9.56,2.34L292,401.57l-9.56-2.34Z" transform="translate(-111.14 -338.16)"/><path class="cls-4" d="M296.28,402l14.92-28.07,14.45,7.68a23.81,23.81,0,0,1,5.78,4A7.42,7.42,0,0,1,333.5,390a9,9,0,0,1-8.45,10,11.89,11.89,0,0,1-3.64-.51,9.76,9.76,0,0,1,1.71,2.24,9.88,9.88,0,0,1,.6,2.21,12.64,12.64,0,0,1,.29,2.39l-0.12,10.37-9.8-5.21-0.08-11a7.4,7.4,0,0,0-.42-3,4.13,4.13,0,0,0-1.78-1.78l-0.77-.41L305,406.65ZM313.87,390l3.66,1.94a14.85,14.85,0,0,0,2.5.84,2.59,2.59,0,0,0,1.87-.13,3.21,3.21,0,0,0,1.66-3.88q-0.47-1.19-2.85-2.45l-3.81-2Z" transform="translate(-111.14 -338.16)"/><path class="cls-4" d="M333.67,404.68q5.72-5.28,11.85-5t11.38,5.94q5.38,5.83,5.16,11.88T356.2,428.7a19.57,19.57,0,0,1-8,4.82,13.38,13.38,0,0,1-7.75-.22,17.89,17.89,0,0,1-7.45-5.15,20.34,20.34,0,0,1-4.78-7.7,13.4,13.4,0,0,1,.11-7.87A18,18,0,0,1,333.67,404.68Zm6.63,7.25q-3.54,3.26-3.87,6a6.77,6.77,0,0,0,6.59,7.21q2.69-.12,6.61-3.74,3.3-3,3.59-5.78a6.19,6.19,0,0,0-1.81-5,6,6,0,0,0-4.78-2.08Q343.87,408.63,340.3,411.92Z" transform="translate(-111.14 -338.16)"/><path class="cls-4" d="M186.18,546.24l5.46,8.66-15.19,9.58a28.21,28.21,0,0,1-7.81,3.74,9.88,9.88,0,0,1-6.38-.74,13.59,13.59,0,0,1-5.88-5.47,17.94,17.94,0,0,1-3-7.28,9.74,9.74,0,0,1,1.08-5.71,14.89,14.89,0,0,1,4.5-4.93l6.34,7.55a11.11,11.11,0,0,0-2.54,2.06,3.54,3.54,0,0,0-.8,1.94,2.79,2.79,0,0,0,.53,1.64,2.75,2.75,0,0,0,2.42,1.45A8.49,8.49,0,0,0,169,557.1Z" transform="translate(-111.14 -338.16)"/><path class="cls-4" d="M193.71,556.4l7.12,7.36-23.75,23L170,579.38Z" transform="translate(-111.14 -338.16)"/><path class="cls-4" d="M220.66,578l8.68,5.34L219,600.07a16.58,16.58,0,0,1-3.68,4.23,12,12,0,0,1-4.82,2.38,11.41,11.41,0,0,1-4.92.19,20.58,20.58,0,0,1-6.67-2.8,44.87,44.87,0,0,1-4.31-3,13.78,13.78,0,0,1-3.36-3.64,11.94,11.94,0,0,1-1.49-4.26,10.47,10.47,0,0,1,.14-4.38,19.76,19.76,0,0,1,2.12-5.26l10.31-16.77L211,572l-10.56,17.17a5.76,5.76,0,0,0-.94,4.38,6.46,6.46,0,0,0,7.06,4.37,5.74,5.74,0,0,0,3.5-2.83Z" transform="translate(-111.14 -338.16)"/><path class="cls-4" d="M224.68,599l12.71,4.07-2.17,6.76-12.71-4.07Z" transform="translate(-111.14 -338.16)"/><path class="cls-4" d="M256.81,588.56L267,589.65l-1.9,17.86a28.33,28.33,0,0,1-1.91,8.45,9.89,9.89,0,0,1-4.54,4.55,13.58,13.58,0,0,1-7.94,1.22,18,18,0,0,1-7.57-2.17,9.75,9.75,0,0,1-3.81-4.38,14.89,14.89,0,0,1-1.08-6.59l9.85-.29a11.18,11.18,0,0,0,0,3.27,3.53,3.53,0,0,0,1,1.83,2.78,2.78,0,0,0,1.61.6,2.75,2.75,0,0,0,2.63-1,8.48,8.48,0,0,0,1.25-4.18Z" transform="translate(-111.14 -338.16)"/><path class="cls-4" d="M271.14,588.88l10.17-1.18,3.82,32.83L275,621.71Z" transform="translate(-111.14 -338.16)"/><path class="cls-4" d="M281.65,588.81L311,578.58l2.69,7.71-9.83,3.43,8.2,23.5-9.64,3.37-8.21-23.5-9.83,3.43Z" transform="translate(-111.14 -338.16)"/><path class="cls-4" d="M323.29,596.68l7.39-6.33a7.43,7.43,0,0,0,3.2,2.11,5.4,5.4,0,0,0,4.81-1.11,5,5,0,0,0,2.07-2.85,3.07,3.07,0,0,0-.49-2.61,3,3,0,0,0-2.28-1.16q-1.51-.13-5.33,1.62-6.28,2.84-10.07,2.56a8.07,8.07,0,0,1-6.14-3.36,8.65,8.65,0,0,1-1.72-4.73,9.79,9.79,0,0,1,1.4-5.52,20.74,20.74,0,0,1,5.71-5.93q5.06-3.81,9.13-3.93t7.67,3.6l-7.35,6.24a4.5,4.5,0,0,0-6.56-.39,4.09,4.09,0,0,0-1.69,2.22,2.31,2.31,0,0,0,.38,2,1.84,1.84,0,0,0,1.45.69,8.36,8.36,0,0,0,3.47-1.09,43,43,0,0,1,9.42-3.44,10.09,10.09,0,0,1,5.57.39,9.29,9.29,0,0,1,4,3.11,10.48,10.48,0,0,1,2.12,5.74,11,11,0,0,1-1.47,6.21,19.87,19.87,0,0,1-5.52,5.9q-6.73,5.08-11.28,4.44A12.8,12.8,0,0,1,323.29,596.68Z" transform="translate(-111.14 -338.16)"/><path class="cls-4" d="M345.92,543.92l5.85-8.35,16.13,11.3a16.61,16.61,0,0,1,4,3.92,12,12,0,0,1,2.09,5,11.4,11.4,0,0,1-.11,4.92,20.6,20.6,0,0,1-3.19,6.49,45.22,45.22,0,0,1-3.3,4.12,13.77,13.77,0,0,1-3.83,3.14,11.91,11.91,0,0,1-4.34,1.24,10.48,10.48,0,0,1-4.37-.4,19.72,19.72,0,0,1-5.12-2.43l-16.13-11.3,5.85-8.35L356,564.74a5.76,5.76,0,0,0,4.32,1.19,6.45,6.45,0,0,0,4.78-6.78,5.74,5.74,0,0,0-2.62-3.66Z" transform="translate(-111.14 -338.16)"/><path class="cls-4" d="M149.87,461.89h11.28v2.91h-7.06V467h6.55v2.78h-6.55v2.69h7.26v3.08H149.87V461.89Z" transform="translate(-111.14 -338.16)"/><path class="cls-4" d="M149.14,486.23l4-.25a3,3,0,0,0,.53,1.49,2.22,2.22,0,0,0,1.86.83,2.06,2.06,0,0,0,1.39-.42,1.22,1.22,0,0,0,0-1.93,5.41,5.41,0,0,0-2.16-.79,9.16,9.16,0,0,1-4-1.65,3.33,3.33,0,0,1-1.19-2.63,3.57,3.57,0,0,1,.61-2,4,4,0,0,1,1.83-1.47,8.57,8.57,0,0,1,3.35-.53,6.86,6.86,0,0,1,4,1,4.19,4.19,0,0,1,1.63,3.09l-4,.23a1.85,1.85,0,0,0-2.06-1.76,1.69,1.69,0,0,0-1.11.31,1,1,0,0,0-.37.76,0.76,0.76,0,0,0,.31.59,3.45,3.45,0,0,0,1.41.5,17.69,17.69,0,0,1,4,1.2,4.15,4.15,0,0,1,1.74,1.51,3.82,3.82,0,0,1,.54,2,4.32,4.32,0,0,1-.72,2.42,4.55,4.55,0,0,1-2,1.68,8.2,8.2,0,0,1-3.28.57q-3.48,0-4.81-1.34A5.27,5.27,0,0,1,149.14,486.23Z" transform="translate(-111.14 -338.16)"/><path class="cls-4" d="M148.92,492.34h12.79v3.36h-4.29V506h-4.21V495.7h-4.29v-3.36Z" transform="translate(-111.14 -338.16)"/><path class="cls-4" d="M377.74,453.2v13.85h-3.83V458a11.79,11.79,0,0,1-1.8,1.14,14.16,14.16,0,0,1-2.18.84v-3.1a9.22,9.22,0,0,0,3-1.5,6.1,6.1,0,0,0,1.67-2.16h3.13Z" transform="translate(-111.14 -338.16)"/><path class="cls-4" d="M369.33,479.22l3.76-.47a2,2,0,0,0,.5,1.12,1.23,1.23,0,0,0,.87.33,1.57,1.57,0,0,0,1.42-.92,8.7,8.7,0,0,0,.56-2.87,4.7,4.7,0,0,1-1.4,1,4,4,0,0,1-1.65.33,4.13,4.13,0,0,1-3.09-1.3,4.54,4.54,0,0,1-1.26-3.29,4.87,4.87,0,0,1,.64-2.47,4.2,4.2,0,0,1,1.77-1.69,6.22,6.22,0,0,1,2.82-.57,6.65,6.65,0,0,1,3.28.7,5,5,0,0,1,2,2.23,9.37,9.37,0,0,1,.74,4q0,3.69-1.55,5.4a5.51,5.51,0,0,1-4.3,1.71,7,7,0,0,1-2.56-.38,4,4,0,0,1-1.56-1.1A5,5,0,0,1,369.33,479.22Zm7-6.08a2.52,2.52,0,0,0-.56-1.73,1.75,1.75,0,0,0-1.36-.63,1.59,1.59,0,0,0-1.25.57,2.51,2.51,0,0,0-.5,1.7,2.61,2.61,0,0,0,.52,1.75,1.62,1.62,0,0,0,1.29.6,1.72,1.72,0,0,0,1.33-.59A2.42,2.42,0,0,0,376.3,473.14Z" transform="translate(-111.14 -338.16)"/><path class="cls-4" d="M369.33,494.44l3.76-.47a2,2,0,0,0,.5,1.12,1.23,1.23,0,0,0,.87.33,1.57,1.57,0,0,0,1.42-.92,8.7,8.7,0,0,0,.56-2.87,4.7,4.7,0,0,1-1.4,1,4,4,0,0,1-1.65.33,4.13,4.13,0,0,1-3.09-1.3,4.54,4.54,0,0,1-1.26-3.29,4.87,4.87,0,0,1,.64-2.47,4.2,4.2,0,0,1,1.77-1.69,6.22,6.22,0,0,1,2.82-.57,6.65,6.65,0,0,1,3.28.7,5,5,0,0,1,2,2.23,9.37,9.37,0,0,1,.74,4q0,3.69-1.55,5.4a5.51,5.51,0,0,1-4.3,1.71,7,7,0,0,1-2.56-.38,4,4,0,0,1-1.56-1.1A5,5,0,0,1,369.33,494.44Zm7-6.08a2.52,2.52,0,0,0-.56-1.73,1.75,1.75,0,0,0-1.36-.63,1.59,1.59,0,0,0-1.25.57,2.51,2.51,0,0,0-.5,1.7,2.61,2.61,0,0,0,.52,1.75,1.62,1.62,0,0,0,1.29.6,1.72,1.72,0,0,0,1.33-.59A2.42,2.42,0,0,0,376.3,488.37Z" transform="translate(-111.14 -338.16)"/><path class="cls-4" d="M370.7,499.1h9v3h-6.09l-0.32,2a6.54,6.54,0,0,1,1.25-.45,5.22,5.22,0,0,1,1.22-.15,4.56,4.56,0,0,1,3.32,1.24,4.16,4.16,0,0,1,1.27,3.11,5.29,5.29,0,0,1-.65,2.54,4.46,4.46,0,0,1-1.86,1.86,6.53,6.53,0,0,1-3.08.64,9.13,9.13,0,0,1-2.31-.26,4.68,4.68,0,0,1-1.64-.76,4.53,4.53,0,0,1-1.09-1.15,6,6,0,0,1-.7-1.6l3.83-.42a2.31,2.31,0,0,0,.65,1.4,1.72,1.72,0,0,0,1.22.48,1.64,1.64,0,0,0,1.31-.6,2.67,2.67,0,0,0,.52-1.79,2.58,2.58,0,0,0-.52-1.78,1.79,1.79,0,0,0-1.38-.57,2.25,2.25,0,0,0-1.06.27,3,3,0,0,0-.83.71l-3.23-.46Z" transform="translate(-111.14 -338.16)"/><text class="cls-5" transform="translate(48.23 167.91)">.</text></svg>