<svg id="Rebiero" xmlns="http://www.w3.org/2000/svg" viewBox="0 0 140.96 157"><defs><style>.cls-1{fill:#f2da0d;}</style></defs><title>ribeiro-star-yellow</title><path class="cls-1" d="M269.86,413.43S245.1,444.58,264,483.49c0,0,4.63-27.21,31.29-37.27C295.3,446.22,273,432.61,269.86,413.43Z" transform="translate(-194.58 -412.35)"/><path class="cls-1" d="M264,484.58a1.09,1.09,0,0,1-1-.61c-19-39.07,5.72-70.89,6-71.21a1.09,1.09,0,0,1,1.93.5c3,18.45,24.71,31.9,24.93,32a1.09,1.09,0,0,1-.18,1.95c-25.74,9.72-30.55,36.17-30.6,36.44a1.09,1.09,0,0,1-.92.89H264Zm5.29-68.46c-4.75,7.21-19.14,33-5.61,64.09,2.1-7.32,9.21-25.69,29.26-34.22C287.79,442.46,273.1,431.29,269.31,416.12Z" transform="translate(-194.58 -412.35)"/><path class="cls-1" d="M200.54,450s15.23,36.76,58.43,39.1c0,0-21.55-17.24-17.42-45.44C241.54,443.69,218.83,456.6,200.54,450Z" transform="translate(-194.58 -412.35)"/><path class="cls-1" d="M259,490.21H258.9c-43.37-2.35-59.22-39.39-59.37-39.77A1.09,1.09,0,0,1,200.9,449c17.63,6.33,39.88-6.14,40.1-6.26a1.09,1.09,0,0,1,1.62,1.1c-4,27.23,16.81,44.26,17,44.43A1.09,1.09,0,0,1,259,490.21Zm-56.35-38.4c4,7.65,19.61,32.76,53.33,36-5.38-5.39-18-20.52-15.74-42.19C234.61,448.43,217.72,455.86,202.61,451.82Z" transform="translate(-194.58 -412.35)"/><path class="cls-1" d="M195.67,527.85s39.47,5.08,63-31.23c0,0-25.68,10.11-48.08-7.5C210.57,489.12,210.47,515.25,195.67,527.85Z" transform="translate(-194.58 -412.35)"/><path class="cls-1" d="M200.42,529.15a44.58,44.58,0,0,1-4.89-.22A1.09,1.09,0,0,1,195,527c14.24-12.12,14.52-37.65,14.52-37.9a1.09,1.09,0,0,1,1.76-.85c21.63,17,46.76,7.44,47,7.34a1.09,1.09,0,0,1,1.31,1.6C240.86,526.09,211.87,529.15,200.42,529.15Zm-2.17-2.21c8.63,0.33,38.17-.71,57.75-28.35-7.35,2-26.75,5.41-44.42-7.34C211.24,497.5,209.28,515.85,198.25,526.94Z" transform="translate(-194.58 -412.35)"/><path class="cls-1" d="M262.84,568.26s23.58-32,3.24-70.22c0,0-3.61,27.36-29.88,38.41C236.21,536.44,259,549.21,262.84,568.26Z" transform="translate(-194.58 -412.35)"/><path class="cls-1" d="M262.84,569.35l-0.24,0a1.09,1.09,0,0,1-.83-0.85c-3.7-18.35-25.88-31-26.1-31.08a1.09,1.09,0,0,1,.11-2C261.15,524.77,265,498.16,265,497.89a1.09,1.09,0,0,1,2-.37c20.43,38.34-3.09,71.06-3.33,71.38A1.08,1.08,0,0,1,262.84,569.35Zm-24.29-32.76c5.29,3.33,20.39,13.94,24.74,29,4.48-7.38,17.9-33.73,3.22-64.26C264.7,508.69,258.27,527.32,238.56,536.59Z" transform="translate(-194.58 -412.35)"/><path class="cls-1" d="M330.35,535.24S316.29,498,273.19,494.32c0,0,21,17.91,16,46C289.17,540.29,312.28,528.1,330.35,535.24Z" transform="translate(-194.58 -412.35)"/><path class="cls-1" d="M289.17,541.38a1.09,1.09,0,0,1-1.07-1.28c4.85-27.09-15.41-44.77-15.61-44.95a1.09,1.09,0,0,1-.3-1.25,1,1,0,0,1,1.1-.66c43.28,3.71,57.94,41.24,58.09,41.62a1.09,1.09,0,0,1-1.42,1.4c-17.4-6.87-40.05,4.88-40.28,5A1.09,1.09,0,0,1,289.17,541.38Zm-13-45.64c5.21,5.55,17.34,21.08,14.4,42.66,5.67-2.63,22.78-9.53,37.77-5C324.57,525.61,309.77,500,276.17,495.73Z" transform="translate(-194.58 -412.35)"/><path class="cls-1" d="M334.45,457s-39.37-5.76-63.51,30.14c0,0,25.85-9.67,47.95,8.33C318.89,495.42,319.44,469.3,334.45,457Z" transform="translate(-194.58 -412.35)"/><path class="cls-1" d="M318.88,496.51a1.08,1.08,0,0,1-.69-0.24c-21.33-17.37-46.62-8.24-46.88-8.15a1.09,1.09,0,0,1-1.28-1.63c24.24-36,64.17-30.67,64.57-30.61a1.09,1.09,0,0,1,.53,1.92C320.69,469.68,320,495.19,320,495.45A1.09,1.09,0,0,1,318.88,496.51Zm-31.27-13a49.86,49.86,0,0,1,30.3,9.81c0.45-6.24,2.73-24.55,13.94-35.46-8.63-.49-38.18,0-58.23,27.35A58.12,58.12,0,0,1,287.61,483.47Z" transform="translate(-194.58 -412.35)"/></svg>